PathFileType	4	(X/Y/Z)
DataRate	CameraRate	NumFrames	NumMarkers	Units	OrigDataRate	OrigDataStartFrame	OrigNumFrames	
  120.0	  120.0	    4	     64	     mm	  120.0	      1	    239
Frame#	Time	LASI			RASI			LPSI			RPSI			RTH1			RTH2			RTH3			RLFC			RMFC			LTH1			LTH2			LTH3			LLFC			LMFC			RTB1			RTB2			RTB3			RLMAL			RMMAL			LTB1			LTB2			LTB3			LMMAL			LLMAL			RCAL			RTOE			RMT5			LCAL			LTOE			LMT5			LACR			RACR			CLAV			C7			LASH			LPSH			RASH			RPSH			RUA1			RUA2			RUA3			RLEL			RMEL			LUA1			LUA2			LUA3			LLEL			LMEL			RFAsuperior			RFAradius			RFAulna			LFAsuperior			LFAradius			LFAulna			RHJC			LHJC			RKJC			LKJC			RAJC			LAJC			RSJC			LSJC			REJC			LEJC			
		X1	Y1	Z1	X2	Y2	Z2	X3	Y3	Z3	X4	Y4	Z4	X5	Y5	Z5	X6	Y6	Z6	X7	Y7	Z7	X8	Y8	Z8	X9	Y9	Z9	X10	Y10	Z10	X11	Y11	Z11	X12	Y12	Z12	X13	Y13	Z13	X14	Y14	Z14	X15	Y15	Z15	X16	Y16	Z16	X17	Y17	Z17	X18	Y18	Z18	X19	Y19	Z19	X20	Y20	Z20	X21	Y21	Z21	X22	Y22	Z22	X23	Y23	Z23	X24	Y24	Z24	X25	Y25	Z25	X26	Y26	Z26	X27	Y27	Z27	X28	Y28	Z28	X29	Y29	Z29	X30	Y30	Z30	X31	Y31	Z31	X32	Y32	Z32	X33	Y33	Z33	X34	Y34	Z34	X35	Y35	Z35	X36	Y36	Z36	X37	Y37	Z37	X38	Y38	Z38	X39	Y39	Z39	X40	Y40	Z40	X41	Y41	Z41	X42	Y42	Z42	X43	Y43	Z43	X44	Y44	Z44	X45	Y45	Z45	X46	Y46	Z46	X47	Y47	Z47	X48	Y48	Z48	X49	Y49	Z49	X50	Y50	Z50	X51	Y51	Z51	X52	Y52	Z52	X53	Y53	Z53	X54	Y54	Z54	X55	Y55	Z55	X56	Y56	Z56	X57	Y57	Z57	X58	Y58	Z58	X59	Y59	Z59	X60	Y60	Z60	X61	Y61	Z61	X62	Y62	Z62	X63	Y63	Z63	X64	Y64	Z64	

1	0.00000	610.26178	1099.26233	-624.58392	754.31586	1106.90613	-404.16580	509.45850	1134.28088	-449.50754	552.30780	1132.35730	-377.03137	722.20715	941.44696	-307.23709	747.70673	830.33868	-327.80533	661.39654	726.21991	-288.94733	682.56055	551.13648	-291.74036	584.72626	532.03833	-366.88153	502.77951	895.29492	-628.87109	534.29626	766.76086	-642.19501	462.47253	665.46381	-585.32391	466.75897	563.86407	-593.71899	515.99829	549.89789	-480.04922	665.61780	416.93076	-354.84351	690.53479	355.66653	-282.51096	667.48181	250.17543	-345.68243	662.41656	124.58182	-286.69333	625.48578	130.90265	-358.66531	512.44562	428.58148	-573.74872	457.45059	347.96258	-609.36084	508.20871	229.02091	-575.00537	502.90152	127.37737	-529.34485	449.13403	124.75838	-589.54651	581.99390	99.37978	-289.14850	742.48321	57.68534	-437.55804	773.73694	54.44474	-324.58746	422.60010	97.35822	-518.97906	630.08032	63.44938	-615.28369	533.82190	53.30727	-680.31055	492.53317	1603.26233	-569.31244	669.52234	1604.75122	-322.91870	669.43774	1551.49377	-471.77182	544.24518	1601.12317	-412.52957	553.26837	1560.23462	-594.08527	425.62741	1541.20544	-547.16492	715.39423	1560.83606	-364.70850	621.54584	1553.75501	-273.67227	714.85535	1572.62903	-235.78339	792.77270	1541.93616	-218.73116	761.61414	1510.65833	-156.59132	878.95636	1502.86743	-65.36559	878.25214	1429.73633	-99.94779	426.29901	1574.67200	-630.82776	433.19311	1557.00842	-692.93555	373.52307	1484.83545	-669.50836	306.74481	1489.36072	-835.93469	326.23206	1411.83386	-826.70563	957.80255	1546.87415	-127.17915	1088.48242	1544.70007	-252.59331	1118.48169	1567.58740	-191.93909	386.66434	1522.26343	-884.67981	551.93799	1513.50208	-967.06696	510.99451	1523.17200	-1026.57654	670.93665	1032.32466	-395.99446	574.55926	1030.21202	-550.57048	633.64340	541.58740	-329.31094	491.37863	556.88098	-536.88411	643.95117	127.74224	-322.67932	476.01778	126.06788	-559.44568	668.47003	1557.29553	-319.19038	489.44789	1550.72003	-570.62509	878.60425	1466.30188	-82.65669	316.48843	1450.59729	-831.32016	
2	0.00833	610.23120	1099.29370	-624.58398	754.27844	1106.92712	-404.16806	509.45099	1134.27429	-449.50568	552.28735	1132.35169	-377.05164	722.16235	941.48450	-307.22723	747.69519	830.29993	-327.84332	661.36957	726.19794	-288.96790	682.56024	551.13641	-291.74023	584.66998	532.05054	-366.88162	502.75626	895.31744	-628.86261	534.32111	766.75952	-642.22351	462.45294	665.47229	-585.38086	466.76224	563.87482	-593.71997	515.95074	549.90674	-480.02985	665.58319	416.92813	-354.88440	690.52905	355.64713	-282.51346	667.50537	250.17856	-345.67462	662.42236	124.61760	-286.68738	625.45483	130.89354	-358.62299	512.46326	428.58029	-573.75971	457.44388	347.95459	-609.35425	508.22778	229.03412	-575.00348	502.83441	127.43774	-529.29993	449.13528	124.76218	-589.54883	581.97339	99.34789	-289.16480	742.46887	57.66069	-437.51883	773.71265	54.45014	-324.58829	422.57761	97.36050	-518.98016	630.06403	63.44540	-615.26154	533.81976	53.30545	-680.31494	492.51776	1603.26269	-569.34515	669.49780	1604.76440	-322.91574	669.39532	1551.47949	-471.78812	544.25580	1601.10364	-412.52936	553.23151	1560.24609	-594.05017	425.59125	1541.18189	-547.15185	715.33582	1560.85205	-364.70703	621.50543	1553.77441	-273.66025	714.78339	1572.58093	-235.74553	792.73535	1541.91504	-218.75297	761.57416	1510.62463	-156.62233	878.95001	1502.78601	-65.35485	878.04614	1429.69446	-99.92179	426.23132	1574.65820	-630.80896	433.16016	1556.97339	-692.94910	373.49460	1484.78943	-669.52252	306.73392	1489.32617	-835.91882	326.25317	1411.81543	-826.71185	957.78546	1546.79639	-127.17986	1088.45447	1544.62402	-252.58757	1118.46033	1567.50391	-191.83556	386.60400	1522.26135	-884.65564	551.85992	1513.54700	-967.05945	510.99356	1523.12329	-1026.55798	670.91922	1032.33400	-396.00876	574.53943	1030.22992	-550.58329	633.61511	541.59348	-329.31093	491.35649	556.89078	-536.87491	643.93860	127.75557	-322.65518	475.98485	126.09996	-559.42438	668.42062	1557.31323	-319.18364	489.41138	1550.71399	-570.60101	878.49808	1466.24023	-82.63832	316.49355	1450.57080	-831.31534	
3	0.01667	610.21252	1099.25488	-624.57623	754.24616	1106.90735	-404.15753	509.44565	1134.28186	-449.50275	552.24255	1132.34680	-377.10376	722.12994	941.44611	-307.27023	747.64087	830.32611	-327.87134	661.34491	726.18018	-288.95593	682.52887	551.11688	-291.82513	584.66980	532.05060	-366.88156	502.71185	895.30322	-628.84564	534.28290	766.76587	-642.24957	462.43799	665.46210	-585.38831	466.71716	563.86755	-593.71960	516.01056	549.91364	-480.07672	665.57233	416.91586	-354.82733	690.51929	355.67334	-282.48843	667.47235	250.12288	-345.63855	662.42236	124.61768	-286.68732	625.47620	130.89519	-358.65060	512.43213	428.57675	-573.76495	457.44385	347.95456	-609.35419	508.22781	229.03416	-575.00354	502.90021	127.37835	-529.34406	449.12351	124.74223	-589.51794	582.01215	99.37667	-289.15631	742.44836	57.65811	-437.46393	773.71686	54.40789	-324.59540	422.57922	97.35169	-518.99292	630.08087	63.44428	-615.26276	533.79901	53.30151	-680.29126	492.45560	1603.26563	-569.29071	669.45557	1604.74915	-322.92453	669.35236	1551.51831	-471.74383	544.20593	1601.11316	-412.51944	553.18286	1560.21081	-594.04114	425.48172	1541.24390	-547.12213	715.28766	1560.85706	-364.74625	621.46118	1553.72437	-273.68320	714.76007	1572.55689	-235.73570	792.70917	1541.88696	-218.72542	761.48865	1510.54468	-156.66109	878.84448	1502.72253	-65.35356	878.00458	1429.63794	-99.94729	426.26514	1574.65698	-630.79822	433.13644	1556.97534	-692.94781	373.45035	1484.79553	-669.51910	306.74158	1489.29321	-835.87091	326.23843	1411.76086	-826.67627	957.76953	1546.69556	-127.15932	1088.42883	1544.58008	-252.60776	1118.43506	1567.44055	-191.82669	386.59024	1522.19458	-884.66333	551.87952	1513.46997	-967.02631	510.95050	1523.12427	-1026.55896	670.87385	1032.32527	-395.99150	574.51515	1030.20467	-550.57924	633.59934	541.58374	-329.35335	491.36386	556.89059	-536.89816	643.94928	127.75643	-322.66896	476.01186	126.06029	-559.43100	668.37442	1557.29071	-319.21472	489.33229	1550.72736	-570.58163	878.42453	1466.18024	-82.65042	316.49001	1450.52704	-831.27359	
4	0.02500	610.17053	1099.26794	-624.56964	754.22980	1106.91760	-404.14108	509.42044	1134.28626	-449.50906	552.23279	1132.35376	-377.09863	722.11993	941.45374	-307.29276	747.64063	830.32623	-327.87155	661.32642	726.21320	-288.97388	682.52747	551.11511	-291.82910	584.68005	532.03876	-366.89716	502.71970	895.31860	-628.90881	534.23950	766.76141	-642.25708	462.45941	665.47717	-585.39948	466.72241	563.87421	-593.72308	515.96442	549.92212	-480.05814	665.61499	416.92001	-354.87167	690.55164	355.64835	-282.58170	667.47095	250.12091	-345.63428	662.41357	124.60066	-286.69363	625.44940	130.89345	-358.63699	512.43402	428.59351	-573.79571	457.40552	347.95700	-609.33246	508.21820	229.05417	-575.02863	502.84699	127.42120	-529.31366	449.11478	124.75212	-589.51227	581.99890	99.34718	-289.21359	742.43243	57.63900	-437.40970	773.71832	54.41320	-324.60599	422.58722	97.37765	-518.95648	630.08496	63.42681	-615.25488	533.81775	53.30715	-680.30902	492.40994	1603.27197	-569.32440	669.42517	1604.75842	-322.90820	669.27154	1551.51794	-471.71161	544.17035	1601.11279	-412.50797	553.15643	1560.20874	-594.02631	425.47888	1541.23645	-547.11554	715.24243	1560.83008	-364.75153	621.42987	1553.72144	-273.67331	714.72131	1572.50867	-235.73418	792.68103	1541.83521	-218.70522	761.49579	1510.51709	-156.65219	878.82245	1502.63025	-65.35724	877.96466	1429.57031	-99.99831	426.22653	1574.63928	-630.82819	433.10907	1556.95715	-692.93835	373.45224	1484.75818	-669.51764	306.69812	1489.24573	-835.87244	326.23837	1411.71179	-826.65857	957.72876	1546.62598	-127.28265	1088.52600	1544.48731	-252.65564	1118.42041	1567.38709	-191.83214	386.58136	1522.12781	-884.57477	551.87982	1513.46899	-967.02576	510.92218	1523.12146	-1026.52185	670.84814	1032.33463	-395.98390	574.49239	1030.21404	-550.57372	633.60376	541.57693	-329.36313	491.34341	556.89816	-536.89061	643.93149	127.74705	-322.66531	475.98088	126.08666	-559.41296	668.33615	1557.27576	-319.21242	489.31766	1550.72260	-570.57092	878.39355	1466.10028	-82.67778	316.46825	1450.47876	-831.26550	
